<?xml version="1.0" encoding="utf-8"?>
<!-- Generator: Adobe Illustrator 26.0.1, SVG Export Plug-In . SVG Version: 6.00 Build 0)  -->
<svg version="1.1" id="Layer_1" xmlns="http://www.w3.org/2000/svg" xmlns:xlink="http://www.w3.org/1999/xlink" x="0px" y="0px"
	 viewBox="0 0 1440.35 170.08" style="enable-background:new 0 0 1440.35 170.08;" xml:space="preserve">
<style type="text/css">
	.st0{fill:#FFFFFF;}
	.st1{fill:#002F87;}
</style>
<g>
	<path class="st0" d="M260.91,65.77h35.47V26.02h35.48v115h-35.48V97.64h-35.47v43.37h-35.48v-115h35.48V65.77z M367.38,103.55
		c8.21,8.71,18.89,11.17,24.31,11.17c5.59,0,10.02-3.12,10.02-8.54c0-11.99-47.81-2.79-47.81-47.81c0-18.07,14.13-34.83,41.56-34.83
		c16.59,0,26.12,5.26,39.43,16.59l-17.91,20.54c-8.21-6.9-13.47-9.86-21.68-9.86c-5.09,0-7.89,1.31-7.89,6.41
		c0,12.49,47.97,4.6,47.97,48.96c0,19.06-11.83,37.29-43.7,37.29c-14.95,0-28.75-5.09-42.22-19.39L367.38,103.55z M525.77,141.01
		h-71.48v-115h71.48V56.9h-36v11.5h33.86v29.24h-33.86v12.49h36V141.01z M661.54,94.92c0,27.5-19.55,46.58-47.21,46.58
		c-27.66,0-47.21-19.08-47.21-46.58V27.83h12.4v67.08c0,20.98,15.42,34.49,34.81,34.49c19.39,0,34.81-13.51,34.81-34.49V27.83h12.4
		V94.92z M768.99,117.65V27.83h12.4v111.27h-12.4l-68.04-89.65v89.65h-12.4V27.83h12.4L768.99,117.65z M824.87,139.11h-12.4V27.83
		h12.4V139.11z M857.14,27.83l34.65,85.04l34.81-85.04h13.83l-46.58,111.27h-3.97L843.31,27.83H857.14z M1012.03,139.11h-55.16
		V27.83h55.16v12.08h-42.76V75.2h38.79v12.08h-38.79v39.74h42.76V139.11z M1048.73,96.82v42.28h-12.4V27.83h31.95
		c19.39,0,35.61,14.94,35.61,34.65c0,16.53-12.24,30.04-28.45,32.59c9.22,3.66,16.37,32.27,31.95,32.27c1.43,0,2.86-0.16,4.13-0.64
		v12.4c-2.22,0.64-4.61,0.95-6.99,0.95c-25.75,0-33.86-43.24-42.92-43.24H1048.73z M1067.17,84.74c12.88,0,24.48-8.74,24.48-22.25
		c0-13.51-11.6-22.57-24.48-22.57h-18.44v44.83H1067.17z M1201.44,107.95c0,18.12-15.42,33.54-39.1,33.54
		c-15.9,0-27.18-6.2-38.95-17.96l7.63-9.38c10.01,9.7,18.92,15.58,31.32,15.58c16.69,0,26.55-10.33,26.55-21.62
		c0-29.25-61.84-8.9-61.84-52.78c0-17.96,13.99-29.89,34.81-29.89c16.53,0,26.23,6.2,37.99,17.33l-7.79,10.01
		c-10.17-10.17-17.65-15.74-30.36-15.74c-13.67,0-22.73,7.15-22.73,18.28C1138.97,85.22,1201.44,65.03,1201.44,107.95z
		 M1237.14,139.11h-12.4V27.83h12.4V139.11z M1292.36,139.11V39.92h-37.99V27.83h88.38v12.08h-37.99v99.19H1292.36z M1352.28,27.83
		h13.99l30.04,58.5l30.04-58.5h13.99l-37.83,73.44v37.83h-12.4v-37.83L1352.28,27.83z M85.04,0C38.08,0,0,38.08,0,85.04
		s38.08,85.04,85.04,85.04c46.96,0,85.04-38.08,85.04-85.04S132,0,85.04,0z"/>
	<path class="st1" d="M100.51,77.35c5.1-2.28,8.24-5.53,10.42-8.14c4.98-5.71,6.02-12.18,6.02-16.61c0-3.84-0.91-13.49-9.34-20.09
		c-5.43-4.19-10.34-6.32-22.06-6.32h-5.84c-0.19-0.01-0.36-0.01-0.59-0.01H54.65v114.56h69.53v-22.2
		C124.18,96.5,116.66,83.39,100.51,77.35z M107.9,133.77H96.17V95.76H81.16v38.06h-10.3V32.53l10.93,0.01
		c6.44,0,11.45,2.16,14.88,6.43c2.13,2.57,3.61,6.07,4.18,9.87h-19.7v6.29h19.91c-0.18,3.3-0.88,7.21-4.36,11.44
		c-2.21,2.77-7.13,7.41-15.23,7.41h-0.47v6.37h0.34c18.11,0,26.55,11.46,26.55,36.07V133.77z"/>
</g>
</svg>
